<?xml version="1.0" ?><!DOCTYPE svg  PUBLIC '-//W3C//DTD SVG 1.1//EN'  'http://www.w3.org/Graphics/SVG/1.1/DTD/svg11.dtd'><svg height="512px" style="enable-background:new 0 0 512 512;" version="1.1" viewBox="0 0 512 512" width="512px" xml:space="preserve" xmlns="http://www.w3.org/2000/svg" xmlns:xlink="http://www.w3.org/1999/xlink"><g id="_x35_09_x2C__mouse_x2C__graduation_x2C__online_x2C__education"><g><path d="M311,406v41c0,21.54-17.46,39-39,39h-22c-21.54,0-39-17.46-39-39v-41h50H311z" style="fill:#FEBE76;"/><path d="M219.875,455.875v-41h50H311V406h-50h-50v41c0,13.036,6.401,24.568,16.225,31.65    C222.605,472.241,219.875,464.379,219.875,455.875z" style="fill:#E8A664;"/><path d="M261,406h-50v-11c0-21.54,17.46-39,39-39h11h11c21.54,0,39,17.46,39,39v11H261z" style="fill:#D7DEED;"/><path d="M216,404.375c0-21.54,17.46-39,39-39h11h11c13.018,0,24.537,6.384,31.621,16.185    C303.146,366.643,288.816,356,272,356h-11h-11c-21.54,0-39,17.46-39,39v11h5V404.375z" style="fill:#AFB9D2;"/><path d="M421,206c11.05,0,20,8.95,20,20s-8.95,20-20,20s-20-8.95-20-20S409.95,206,421,206z" style="fill:#FF7979;"/><path d="M404.5,237.167c0-11.05,8.95-20,20-20c6.851,0,12.889,3.444,16.493,8.692    C440.916,214.875,432.002,206,421,206c-11.05,0-20,8.95-20,20c0,4.199,1.298,8.091,3.507,11.308    C404.507,237.26,404.5,237.214,404.5,237.167z" style="fill:#D65B5B;"/><path d="M421,100.7l-49.64,46.7c-0.011-11.47-0.08-22.83,0.109-35.13C287.29,77.13,211.48,78.98,141,108.61    c-0.17,11.14-0.1,22.45-0.02,33.76l-0.22,0.72L91,100.7L257.64,26L421,100.7z" style="fill:#747371;"/><g><g><g><polygon points="257.822,38.167 412.357,108.832 421,100.7 257.64,26 91,100.7 100.42,108.726      " style="fill:#5B5A57;"/></g><g><path d="M371.652,124.437c-0.099-0.042-0.197-0.079-0.296-0.12c-0.035,7.851-0.003,15.446,0.004,23.083       l0.163-0.153C371.516,139.845,371.53,132.335,371.652,124.437z" style="fill:#5B5A57;"/></g></g></g><path d="M271,163.89c-43.43-1.37-86.75,4.67-130,16.81c0.19-12.65,0.08-25.49-0.02-38.33    c-0.08-11.31-0.15-22.62,0.02-33.76c70.48-29.63,146.29-31.48,230.47,3.66c-0.189,12.3-0.12,23.66-0.109,35.13    c0.02,10.72-0.021,21.53-0.36,33.3C337.59,170.35,304.27,164.94,271,163.89z" style="fill:#57606F;"/><path d="M148.961,178.536c0.05-9.708-0.03-19.499-0.106-29.291c-0.08-11.31-0.15-22.62,0.02-33.76    c68.262-28.697,141.523-31.335,222.547,0.453c0.015-1.216,0.029-2.434,0.048-3.667C287.29,77.13,211.48,78.98,141,108.61    c-0.17,11.14-0.1,22.45-0.02,33.76c0.1,12.84,0.21,25.68,0.02,38.33C143.653,179.956,146.308,179.235,148.961,178.536z" style="fill:#414A56;"/><rect height="20" width="20" x="381" y="386"/><rect height="20" width="20" x="381" y="356"/><rect height="20" width="20" x="381" y="326"/><rect height="20" width="20" x="381" y="296"/><rect height="20" width="20" x="151" y="386"/><rect height="20" width="20" x="151" y="356"/><rect height="20" width="20" x="151" y="326"/><rect height="20" width="20" x="151" y="296"/><path d="M371.361,152.4c-1.331,0-2.659-0.528-3.643-1.574c-1.893-2.012-1.796-5.176,0.216-7.068l44.223-41.604L257.619,31.489    l-157.353,70.537l41.577,35.419c0.2,0.035,0.4,0.083,0.6,0.144c2.641,0.808,4.126,3.604,3.318,6.244l-0.22,0.72    c-0.493,1.61-1.763,2.865-3.379,3.336c-1.617,0.474-3.362,0.099-4.644-0.993l-49.76-42.39c-1.306-1.112-1.95-2.816-1.708-4.514    c0.243-1.698,1.339-3.153,2.904-3.854l166.64-74.7c1.313-0.588,2.816-0.583,4.125,0.015l163.36,74.7    c1.515,0.692,2.584,2.093,2.854,3.736c0.271,1.643-0.295,3.313-1.508,4.453l-49.64,46.7    C373.821,151.95,372.59,152.4,371.361,152.4z"/><path d="M141,185.7c-1.091,0-2.166-0.357-3.051-1.038c-1.25-0.962-1.973-2.459-1.949-4.037    c0.183-12.191,0.084-24.799-0.011-36.992l-0.01-1.224c-0.07-9.902-0.157-22.221,0.021-33.875c0.03-1.985,1.232-3.764,3.062-4.533    c36.073-15.165,73.227-22.854,110.43-22.854c40.078,0,81.765,8.919,123.903,26.509c1.888,0.788,3.105,2.646,3.073,4.691    c-0.153,9.992-0.136,19.509-0.118,28.713l0.01,6.334c0.019,10.207-0.013,21.328-0.362,33.45c-0.045,1.562-0.818,3.014-2.09,3.923    c-1.272,0.909-2.898,1.17-4.388,0.708c-32.136-9.955-65.336-15.536-98.679-16.588c-3.966-0.125-7.998-0.188-11.984-0.188    c-37.558,0-76.756,5.657-116.506,16.815C141.906,185.639,141.452,185.7,141,185.7z M145.957,111.969    c-0.117,10.551-0.04,21.446,0.023,30.365l0.009,1.221c0.079,10.054,0.16,20.388,0.084,30.573    c38.432-10.241,76.341-15.429,112.784-15.429c4.092,0,8.229,0.065,12.3,0.193c32.061,1.012,63.986,6.099,95.006,15.133    c0.194-9.492,0.212-18.352,0.197-26.617l-0.01-6.33c-0.016-8.199-0.031-16.646,0.073-25.482    c-39.844-16.226-79.169-24.451-116.932-24.451C214.662,91.146,179.845,98.151,145.957,111.969z"/><path d="M421,211c-2.762,0-5-2.239-5-5V106c0-2.761,2.238-5,5-5s5,2.239,5,5v100C426,208.761,423.762,211,421,211z"/><path d="M421,251c-13.785,0-25-11.215-25-25s11.215-25,25-25s25,11.215,25,25S434.785,251,421,251z M421,211    c-8.271,0-15,6.729-15,15s6.729,15,15,15s15-6.729,15-15S429.271,211,421,211z"/><path d="M272,491c-2.762,0-5-2.238-5-5s2.238-5,5-5c18.748,0,34-15.252,34-34v-52c0-18.748-15.252-34-34-34h-22    c-18.748,0-34,15.252-34,34v52c0,18.748,15.252,34,34,34c2.761,0,5,2.238,5,5s-2.239,5-5,5c-24.262,0-44-19.738-44-44v-52    c0-24.262,19.738-44,44-44h22c24.262,0,44,19.738,44,44v52C316,471.262,296.262,491,272,491z"/><path d="M311,411H211c-2.761,0-5-2.238-5-5s2.239-5,5-5h100c2.762,0,5,2.238,5,5S313.762,411,311,411z"/><path d="M261,411c-2.762,0-5-2.238-5-5v-20c0-2.762,2.238-5,5-5s5,2.238,5,5v20C266,408.762,263.762,411,261,411z"/><path d="M261,361c-2.762,0-5-2.238-5-5v-15c0-16.542,13.458-30,30-30h40c11.028,0,20-8.972,20-20    c0-5.346-2.079-10.368-5.855-14.144C336.368,273.079,331.346,271,326,271H196c-16.542,0-30-13.458-30-30    c0-8.017,3.12-15.551,8.784-21.216S187.983,211,196,211h50c11.028,0,20-8.972,20-20v-55c0-2.761,2.238-5,5-5s5,2.239,5,5v55    c0,16.542-13.458,30-30,30h-50c-5.345,0-10.369,2.08-14.145,5.855S176,235.655,176,241c0,11.028,8.972,20,20,20h130    c8.018,0,15.552,3.12,21.216,8.785C352.88,275.448,356,282.982,356,291c0,16.542-13.458,30-30,30h-40c-11.028,0-20,8.972-20,20v15    C266,358.762,263.762,361,261,361z"/><path d="M441,491H41c-2.761,0-5-2.238-5-5s2.239-5,5-5h400c2.762,0,5,2.238,5,5S443.762,491,441,491z"/></g></g><g id="Layer_1"/></svg>